<?xml version="1.0" standalone="no"?><!DOCTYPE svg PUBLIC "-//W3C//DTD SVG 1.1//EN" "http://www.w3.org/Graphics/SVG/1.1/DTD/svg11.dtd"><svg t="1732171240161" class="icon" viewBox="0 0 1040 1024" version="1.1" xmlns="http://www.w3.org/2000/svg" p-id="12071" xmlns:xlink="http://www.w3.org/1999/xlink" width="203.125" height="200"><path d="M133.534106 982.154208c-78.393906 0-113.368619-57.111137-77.716004-126.943393L444.214002 94.571489c35.652615-69.819703 95.023424-70.359514 131.931412-1.200974L983.376105 856.40342c36.916357 69.166909 2.975236 125.759158-75.410301 125.759157H133.534106v-0.008369z" fill="#FFB624" p-id="12072"></path><path d="M203.655099 894.734165c-63.208068 0-91.412132-50.687808-62.668258-112.661425l313.17809-675.060497c28.743874-61.965248 76.619645-62.44229 106.380372-1.062883l328.372297 677.182078c29.764912 61.387776 2.397764 111.611096-60.801936 111.611096H203.655099v-0.008369z" fill="#FFD91C" p-id="12073"></path><path d="M468.442715 376.22296v223.305883c0 28.88615 23.416905 52.30724 52.30724 52.307239 28.88615 0 52.30724-23.42109 52.30724-52.307239V376.22296c0-28.890335-23.42109-52.30724-52.30724-52.30724-28.890335 0-52.30724 23.416905-52.30724 52.30724zM468.442715 765.819834v33.254851c0 28.881965 23.416905 52.30724 52.30724 52.30724 28.88615 0 52.30724-23.425274 52.30724-52.30724v-33.254851c0-28.88615-23.42109-52.30724-52.30724-52.307239-28.890335 0-52.30724 23.42109-52.30724 52.307239z" fill="#6E6E96" p-id="12074"></path><path d="M133.534106 961.231312c-30.354937 0-53.006064-9.687301-63.781356-27.28764s-9.105644-42.180558 4.699283-69.217124l388.3959-760.635141c13.327885-26.103405 30.47629-41.159521 47.051408-41.310166 16.570934-0.150645 33.991337 14.591628 47.787894 40.443958l407.230692 763.032905c14.256861 26.714353 16.407735 50.934698 6.046717 68.20864-10.361018 17.265574-32.727594 26.768753-62.99884 26.768753H133.534106a20.922896 20.922896 0 1 1 0-0.004185z m0 41.849977h774.440067c45.549144 0 80.661948-16.729948 98.881606-47.101623 18.219658-30.37586 16.441212-69.242232-5.013126-109.435115L594.603593 83.520016c-21.701228-40.661556-51.913889-62.89004-85.085048-62.588751-33.171159 0.30129-62.977917 23.07377-83.942659 64.124491L37.179986 845.695081c-20.676006 40.502542-21.784919 79.59488-3.113327 110.100463 18.667408 30.493028 53.98944 47.28156 99.471632 47.28156a20.922896 20.922896 0 0 1-0.004185 0.004185z" fill="#6E6E96" p-id="12075"></path></svg>